#usda 1.0
(
    defaultPrim = "Cup"
    upAxis = "Z"
    metersPerUnit = 1
    doc = "空心杯 v3（gen_cup_usda.py）：视觉细网格 + 碰撞=12 box 环+原生圆柱底（全原生图元）"
)

def Xform "Cup" (
    apiSchemas = ["PhysicsRigidBodyAPI", "PhysicsMassAPI", "PhysxRigidBodyAPI", "PhysxContactReportAPI"]
)
{
    float physics:mass = 0.2
    bool physxRigidBody:enableCCD = 1
    float physxContactReport:threshold = 0.0

    def Mesh "visual"
    {
        float3[] points = [(0.015000, 0.000000, -0.024000), (0.021000, 0.000000, -0.024000), (0.021000, 0.000000, 0.027000), (0.015000, 0.000000, 0.027000), (0.014928, 0.001470, -0.024000), (0.020899, 0.002058, -0.024000), (0.020899, 0.002058, 0.027000), (0.014928, 0.001470, 0.027000), (0.014712, 0.002926, -0.024000), (0.020596, 0.004097, -0.024000), (0.020596, 0.004097, 0.027000), (0.014712, 0.002926, 0.027000), (0.014354, 0.004354, -0.024000), (0.020096, 0.006096, -0.024000), (0.020096, 0.006096, 0.027000), (0.014354, 0.004354, 0.027000), (0.013858, 0.005740, -0.024000), (0.019401, 0.008036, -0.024000), (0.019401, 0.008036, 0.027000), (0.013858, 0.005740, 0.027000), (0.013229, 0.007071, -0.024000), (0.018520, 0.009899, -0.024000), (0.018520, 0.009899, 0.027000), (0.013229, 0.007071, 0.027000), (0.012472, 0.008334, -0.024000), (0.017461, 0.011667, -0.024000), (0.017461, 0.011667, 0.027000), (0.012472, 0.008334, 0.027000), (0.011595, 0.009516, -0.024000), (0.016233, 0.013322, -0.024000), (0.016233, 0.013322, 0.027000), (0.011595, 0.009516, 0.027000), (0.010607, 0.010607, -0.024000), (0.014849, 0.014849, -0.024000), (0.014849, 0.014849, 0.027000), (0.010607, 0.010607, 0.027000), (0.009516, 0.011595, -0.024000), (0.013322, 0.016233, -0.024000), (0.013322, 0.016233, 0.027000), (0.009516, 0.011595, 0.027000), (0.008334, 0.012472, -0.024000), (0.011667, 0.017461, -0.024000), (0.011667, 0.017461, 0.027000), (0.008334, 0.012472, 0.027000), (0.007071, 0.013229, -0.024000), (0.009899, 0.018520, -0.024000), (0.009899, 0.018520, 0.027000), (0.007071, 0.013229, 0.027000), (0.005740, 0.013858, -0.024000), (0.008036, 0.019401, -0.024000), (0.008036, 0.019401, 0.027000), (0.005740, 0.013858, 0.027000), (0.004354, 0.014354, -0.024000), (0.006096, 0.020096, -0.024000), (0.006096, 0.020096, 0.027000), (0.004354, 0.014354, 0.027000), (0.002926, 0.014712, -0.024000), (0.004097, 0.020596, -0.024000), (0.004097, 0.020596, 0.027000), (0.002926, 0.014712, 0.027000), (0.001470, 0.014928, -0.024000), (0.002058, 0.020899, -0.024000), (0.002058, 0.020899, 0.027000), (0.001470, 0.014928, 0.027000), (0.000000, 0.015000, -0.024000), (0.000000, 0.021000, -0.024000), (0.000000, 0.021000, 0.027000), (0.000000, 0.015000, 0.027000), (-0.001470, 0.014928, -0.024000), (-0.002058, 0.020899, -0.024000), (-0.002058, 0.020899, 0.027000), (-0.001470, 0.014928, 0.027000), (-0.002926, 0.014712, -0.024000), (-0.004097, 0.020596, -0.024000), (-0.004097, 0.020596, 0.027000), (-0.002926, 0.014712, 0.027000), (-0.004354, 0.014354, -0.024000), (-0.006096, 0.020096, -0.024000), (-0.006096, 0.020096, 0.027000), (-0.004354, 0.014354, 0.027000), (-0.005740, 0.013858, -0.024000), (-0.008036, 0.019401, -0.024000), (-0.008036, 0.019401, 0.027000), (-0.005740, 0.013858, 0.027000), (-0.007071, 0.013229, -0.024000), (-0.009899, 0.018520, -0.024000), (-0.009899, 0.018520, 0.027000), (-0.007071, 0.013229, 0.027000), (-0.008334, 0.012472, -0.024000), (-0.011667, 0.017461, -0.024000), (-0.011667, 0.017461, 0.027000), (-0.008334, 0.012472, 0.027000), (-0.009516, 0.011595, -0.024000), (-0.013322, 0.016233, -0.024000), (-0.013322, 0.016233, 0.027000), (-0.009516, 0.011595, 0.027000), (-0.010607, 0.010607, -0.024000), (-0.014849, 0.014849, -0.024000), (-0.014849, 0.014849, 0.027000), (-0.010607, 0.010607, 0.027000), (-0.011595, 0.009516, -0.024000), (-0.016233, 0.013322, -0.024000), (-0.016233, 0.013322, 0.027000), (-0.011595, 0.009516, 0.027000), (-0.012472, 0.008334, -0.024000), (-0.017461, 0.011667, -0.024000), (-0.017461, 0.011667, 0.027000), (-0.012472, 0.008334, 0.027000), (-0.013229, 0.007071, -0.024000), (-0.018520, 0.009899, -0.024000), (-0.018520, 0.009899, 0.027000), (-0.013229, 0.007071, 0.027000), (-0.013858, 0.005740, -0.024000), (-0.019401, 0.008036, -0.024000), (-0.019401, 0.008036, 0.027000), (-0.013858, 0.005740, 0.027000), (-0.014354, 0.004354, -0.024000), (-0.020096, 0.006096, -0.024000), (-0.020096, 0.006096, 0.027000), (-0.014354, 0.004354, 0.027000), (-0.014712, 0.002926, -0.024000), (-0.020596, 0.004097, -0.024000), (-0.020596, 0.004097, 0.027000), (-0.014712, 0.002926, 0.027000), (-0.014928, 0.001470, -0.024000), (-0.020899, 0.002058, -0.024000), (-0.020899, 0.002058, 0.027000), (-0.014928, 0.001470, 0.027000), (-0.015000, 0.000000, -0.024000), (-0.021000, 0.000000, -0.024000), (-0.021000, 0.000000, 0.027000), (-0.015000, 0.000000, 0.027000), (-0.014928, -0.001470, -0.024000), (-0.020899, -0.002058, -0.024000), (-0.020899, -0.002058, 0.027000), (-0.014928, -0.001470, 0.027000), (-0.014712, -0.002926, -0.024000), (-0.020596, -0.004097, -0.024000), (-0.020596, -0.004097, 0.027000), (-0.014712, -0.002926, 0.027000), (-0.014354, -0.004354, -0.024000), (-0.020096, -0.006096, -0.024000), (-0.020096, -0.006096, 0.027000), (-0.014354, -0.004354, 0.027000), (-0.013858, -0.005740, -0.024000), (-0.019401, -0.008036, -0.024000), (-0.019401, -0.008036, 0.027000), (-0.013858, -0.005740, 0.027000), (-0.013229, -0.007071, -0.024000), (-0.018520, -0.009899, -0.024000), (-0.018520, -0.009899, 0.027000), (-0.013229, -0.007071, 0.027000), (-0.012472, -0.008334, -0.024000), (-0.017461, -0.011667, -0.024000), (-0.017461, -0.011667, 0.027000), (-0.012472, -0.008334, 0.027000), (-0.011595, -0.009516, -0.024000), (-0.016233, -0.013322, -0.024000), (-0.016233, -0.013322, 0.027000), (-0.011595, -0.009516, 0.027000), (-0.010607, -0.010607, -0.024000), (-0.014849, -0.014849, -0.024000), (-0.014849, -0.014849, 0.027000), (-0.010607, -0.010607, 0.027000), (-0.009516, -0.011595, -0.024000), (-0.013322, -0.016233, -0.024000), (-0.013322, -0.016233, 0.027000), (-0.009516, -0.011595, 0.027000), (-0.008334, -0.012472, -0.024000), (-0.011667, -0.017461, -0.024000), (-0.011667, -0.017461, 0.027000), (-0.008334, -0.012472, 0.027000), (-0.007071, -0.013229, -0.024000), (-0.009899, -0.018520, -0.024000), (-0.009899, -0.018520, 0.027000), (-0.007071, -0.013229, 0.027000), (-0.005740, -0.013858, -0.024000), (-0.008036, -0.019401, -0.024000), (-0.008036, -0.019401, 0.027000), (-0.005740, -0.013858, 0.027000), (-0.004354, -0.014354, -0.024000), (-0.006096, -0.020096, -0.024000), (-0.006096, -0.020096, 0.027000), (-0.004354, -0.014354, 0.027000), (-0.002926, -0.014712, -0.024000), (-0.004097, -0.020596, -0.024000), (-0.004097, -0.020596, 0.027000), (-0.002926, -0.014712, 0.027000), (-0.001470, -0.014928, -0.024000), (-0.002058, -0.020899, -0.024000), (-0.002058, -0.020899, 0.027000), (-0.001470, -0.014928, 0.027000), (-0.000000, -0.015000, -0.024000), (-0.000000, -0.021000, -0.024000), (-0.000000, -0.021000, 0.027000), (-0.000000, -0.015000, 0.027000), (0.001470, -0.014928, -0.024000), (0.002058, -0.020899, -0.024000), (0.002058, -0.020899, 0.027000), (0.001470, -0.014928, 0.027000), (0.002926, -0.014712, -0.024000), (0.004097, -0.020596, -0.024000), (0.004097, -0.020596, 0.027000), (0.002926, -0.014712, 0.027000), (0.004354, -0.014354, -0.024000), (0.006096, -0.020096, -0.024000), (0.006096, -0.020096, 0.027000), (0.004354, -0.014354, 0.027000), (0.005740, -0.013858, -0.024000), (0.008036, -0.019401, -0.024000), (0.008036, -0.019401, 0.027000), (0.005740, -0.013858, 0.027000), (0.007071, -0.013229, -0.024000), (0.009899, -0.018520, -0.024000), (0.009899, -0.018520, 0.027000), (0.007071, -0.013229, 0.027000), (0.008334, -0.012472, -0.024000), (0.011667, -0.017461, -0.024000), (0.011667, -0.017461, 0.027000), (0.008334, -0.012472, 0.027000), (0.009516, -0.011595, -0.024000), (0.013322, -0.016233, -0.024000), (0.013322, -0.016233, 0.027000), (0.009516, -0.011595, 0.027000), (0.010607, -0.010607, -0.024000), (0.014849, -0.014849, -0.024000), (0.014849, -0.014849, 0.027000), (0.010607, -0.010607, 0.027000), (0.011595, -0.009516, -0.024000), (0.016233, -0.013322, -0.024000), (0.016233, -0.013322, 0.027000), (0.011595, -0.009516, 0.027000), (0.012472, -0.008334, -0.024000), (0.017461, -0.011667, -0.024000), (0.017461, -0.011667, 0.027000), (0.012472, -0.008334, 0.027000), (0.013229, -0.007071, -0.024000), (0.018520, -0.009899, -0.024000), (0.018520, -0.009899, 0.027000), (0.013229, -0.007071, 0.027000), (0.013858, -0.005740, -0.024000), (0.019401, -0.008036, -0.024000), (0.019401, -0.008036, 0.027000), (0.013858, -0.005740, 0.027000), (0.014354, -0.004354, -0.024000), (0.020096, -0.006096, -0.024000), (0.020096, -0.006096, 0.027000), (0.014354, -0.004354, 0.027000), (0.014712, -0.002926, -0.024000), (0.020596, -0.004097, -0.024000), (0.020596, -0.004097, 0.027000), (0.014712, -0.002926, 0.027000), (0.014928, -0.001470, -0.024000), (0.020899, -0.002058, -0.024000), (0.020899, -0.002058, 0.027000), (0.014928, -0.001470, 0.027000), (0.000000, 0.000000, -0.027000), (0.021000, 0.000000, -0.027000), (0.021000, 0.000000, -0.024000), (0.000000, 0.000000, -0.024000), (0.020899, 0.002058, -0.027000), (0.020899, 0.002058, -0.024000), (0.020596, 0.004097, -0.027000), (0.020596, 0.004097, -0.024000), (0.020096, 0.006096, -0.027000), (0.020096, 0.006096, -0.024000), (0.019401, 0.008036, -0.027000), (0.019401, 0.008036, -0.024000), (0.018520, 0.009899, -0.027000), (0.018520, 0.009899, -0.024000), (0.017461, 0.011667, -0.027000), (0.017461, 0.011667, -0.024000), (0.016233, 0.013322, -0.027000), (0.016233, 0.013322, -0.024000), (0.014849, 0.014849, -0.027000), (0.014849, 0.014849, -0.024000), (0.013322, 0.016233, -0.027000), (0.013322, 0.016233, -0.024000), (0.011667, 0.017461, -0.027000), (0.011667, 0.017461, -0.024000), (0.009899, 0.018520, -0.027000), (0.009899, 0.018520, -0.024000), (0.008036, 0.019401, -0.027000), (0.008036, 0.019401, -0.024000), (0.006096, 0.020096, -0.027000), (0.006096, 0.020096, -0.024000), (0.004097, 0.020596, -0.027000), (0.004097, 0.020596, -0.024000), (0.002058, 0.020899, -0.027000), (0.002058, 0.020899, -0.024000), (0.000000, 0.021000, -0.027000), (0.000000, 0.021000, -0.024000), (-0.002058, 0.020899, -0.027000), (-0.002058, 0.020899, -0.024000), (-0.004097, 0.020596, -0.027000), (-0.004097, 0.020596, -0.024000), (-0.006096, 0.020096, -0.027000), (-0.006096, 0.020096, -0.024000), (-0.008036, 0.019401, -0.027000), (-0.008036, 0.019401, -0.024000), (-0.009899, 0.018520, -0.027000), (-0.009899, 0.018520, -0.024000), (-0.011667, 0.017461, -0.027000), (-0.011667, 0.017461, -0.024000), (-0.013322, 0.016233, -0.027000), (-0.013322, 0.016233, -0.024000), (-0.014849, 0.014849, -0.027000), (-0.014849, 0.014849, -0.024000), (-0.016233, 0.013322, -0.027000), (-0.016233, 0.013322, -0.024000), (-0.017461, 0.011667, -0.027000), (-0.017461, 0.011667, -0.024000), (-0.018520, 0.009899, -0.027000), (-0.018520, 0.009899, -0.024000), (-0.019401, 0.008036, -0.027000), (-0.019401, 0.008036, -0.024000), (-0.020096, 0.006096, -0.027000), (-0.020096, 0.006096, -0.024000), (-0.020596, 0.004097, -0.027000), (-0.020596, 0.004097, -0.024000), (-0.020899, 0.002058, -0.027000), (-0.020899, 0.002058, -0.024000), (-0.021000, 0.000000, -0.027000), (-0.021000, 0.000000, -0.024000), (-0.020899, -0.002058, -0.027000), (-0.020899, -0.002058, -0.024000), (-0.020596, -0.004097, -0.027000), (-0.020596, -0.004097, -0.024000), (-0.020096, -0.006096, -0.027000), (-0.020096, -0.006096, -0.024000), (-0.019401, -0.008036, -0.027000), (-0.019401, -0.008036, -0.024000), (-0.018520, -0.009899, -0.027000), (-0.018520, -0.009899, -0.024000), (-0.017461, -0.011667, -0.027000), (-0.017461, -0.011667, -0.024000), (-0.016233, -0.013322, -0.027000), (-0.016233, -0.013322, -0.024000), (-0.014849, -0.014849, -0.027000), (-0.014849, -0.014849, -0.024000), (-0.013322, -0.016233, -0.027000), (-0.013322, -0.016233, -0.024000), (-0.011667, -0.017461, -0.027000), (-0.011667, -0.017461, -0.024000), (-0.009899, -0.018520, -0.027000), (-0.009899, -0.018520, -0.024000), (-0.008036, -0.019401, -0.027000), (-0.008036, -0.019401, -0.024000), (-0.006096, -0.020096, -0.027000), (-0.006096, -0.020096, -0.024000), (-0.004097, -0.020596, -0.027000), (-0.004097, -0.020596, -0.024000), (-0.002058, -0.020899, -0.027000), (-0.002058, -0.020899, -0.024000), (-0.000000, -0.021000, -0.027000), (-0.000000, -0.021000, -0.024000), (0.002058, -0.020899, -0.027000), (0.002058, -0.020899, -0.024000), (0.004097, -0.020596, -0.027000), (0.004097, -0.020596, -0.024000), (0.006096, -0.020096, -0.027000), (0.006096, -0.020096, -0.024000), (0.008036, -0.019401, -0.027000), (0.008036, -0.019401, -0.024000), (0.009899, -0.018520, -0.027000), (0.009899, -0.018520, -0.024000), (0.011667, -0.017461, -0.027000), (0.011667, -0.017461, -0.024000), (0.013322, -0.016233, -0.027000), (0.013322, -0.016233, -0.024000), (0.014849, -0.014849, -0.027000), (0.014849, -0.014849, -0.024000), (0.016233, -0.013322, -0.027000), (0.016233, -0.013322, -0.024000), (0.017461, -0.011667, -0.027000), (0.017461, -0.011667, -0.024000), (0.018520, -0.009899, -0.027000), (0.018520, -0.009899, -0.024000), (0.019401, -0.008036, -0.027000), (0.019401, -0.008036, -0.024000), (0.020096, -0.006096, -0.027000), (0.020096, -0.006096, -0.024000), (0.020596, -0.004097, -0.027000), (0.020596, -0.004097, -0.024000), (0.020899, -0.002058, -0.027000), (0.020899, -0.002058, -0.024000)]
        int[] faceVertexCounts = [3, 3, 3, 3, 3, 3, 3, 3, 3, 3, 3, 3, 3, 3, 3, 3, 3, 3, 3, 3, 3, 3, 3, 3, 3, 3, 3, 3, 3, 3, 3, 3, 3, 3, 3, 3, 3, 3, 3, 3, 3, 3, 3, 3, 3, 3, 3, 3, 3, 3, 3, 3, 3, 3, 3, 3, 3, 3, 3, 3, 3, 3, 3, 3, 3, 3, 3, 3, 3, 3, 3, 3, 3, 3, 3, 3, 3, 3, 3, 3, 3, 3, 3, 3, 3, 3, 3, 3, 3, 3, 3, 3, 3, 3, 3, 3, 3, 3, 3, 3, 3, 3, 3, 3, 3, 3, 3, 3, 3, 3, 3, 3, 3, 3, 3, 3, 3, 3, 3, 3, 3, 3, 3, 3, 3, 3, 3, 3, 3, 3, 3, 3, 3, 3, 3, 3, 3, 3, 3, 3, 3, 3, 3, 3, 3, 3, 3, 3, 3, 3, 3, 3, 3, 3, 3, 3, 3, 3, 3, 3, 3, 3, 3, 3, 3, 3, 3, 3, 3, 3, 3, 3, 3, 3, 3, 3, 3, 3, 3, 3, 3, 3, 3, 3, 3, 3, 3, 3, 3, 3, 3, 3, 3, 3, 3, 3, 3, 3, 3, 3, 3, 3, 3, 3, 3, 3, 3, 3, 3, 3, 3, 3, 3, 3, 3, 3, 3, 3, 3, 3, 3, 3, 3, 3, 3, 3, 3, 3, 3, 3, 3, 3, 3, 3, 3, 3, 3, 3, 3, 3, 3, 3, 3, 3, 3, 3, 3, 3, 3, 3, 3, 3, 3, 3, 3, 3, 3, 3, 3, 3, 3, 3, 3, 3, 3, 3, 3, 3, 3, 3, 3, 3, 3, 3, 3, 3, 3, 3, 3, 3, 3, 3, 3, 3, 3, 3, 3, 3, 3, 3, 3, 3, 3, 3, 3, 3, 3, 3, 3, 3, 3, 3, 3, 3, 3, 3, 3, 3, 3, 3, 3, 3, 3, 3, 3, 3, 3, 3, 3, 3, 3, 3, 3, 3, 3, 3, 3, 3, 3, 3, 3, 3, 3, 3, 3, 3, 3, 3, 3, 3, 3, 3, 3, 3, 3, 3, 3, 3, 3, 3, 3, 3, 3, 3, 3, 3, 3, 3, 3, 3, 3, 3, 3, 3, 3, 3, 3, 3, 3, 3, 3, 3, 3, 3, 3, 3, 3, 3, 3, 3, 3, 3, 3, 3, 3, 3, 3, 3, 3, 3, 3, 3, 3, 3, 3, 3, 3, 3, 3, 3, 3, 3, 3, 3, 3, 3, 3, 3, 3, 3, 3, 3, 3, 3, 3, 3, 3, 3, 3, 3, 3, 3, 3, 3, 3, 3, 3, 3, 3, 3, 3, 3, 3, 3, 3, 3, 3, 3, 3, 3, 3, 3, 3, 3, 3, 3, 3, 3, 3, 3, 3, 3, 3, 3, 3, 3, 3, 3, 3, 3, 3, 3, 3, 3, 3, 3, 3, 3, 3, 3, 3, 3, 3, 3, 3, 3, 3, 3, 3, 3, 3, 3, 3, 3, 3, 3, 3, 3, 3, 3, 3, 3, 3, 3, 3, 3, 3, 3, 3, 3, 3, 3, 3, 3, 3, 3, 3, 3, 3, 3, 3, 3, 3, 3, 3, 3, 3, 3, 3, 3, 3, 3, 3, 3, 3, 3, 3, 3, 3, 3, 3, 3, 3, 3, 3, 3, 3, 3, 3, 3, 3, 3, 3, 3, 3, 3, 3, 3, 3, 3, 3, 3, 3, 3, 3, 3, 3, 3, 3, 3, 3, 3, 3, 3, 3, 3, 3, 3, 3, 3, 3, 3, 3, 3, 3, 3, 3, 3, 3, 3, 3, 3, 3, 3, 3, 3, 3, 3, 3, 3, 3, 3, 3, 3, 3, 3, 3, 3, 3, 3, 3, 3, 3, 3, 3, 3, 3, 3, 3, 3, 3, 3, 3, 3, 3, 3, 3, 3, 3, 3, 3, 3, 3, 3, 3, 3, 3, 3, 3, 3, 3, 3, 3, 3, 3, 3, 3, 3, 3, 3, 3, 3, 3, 3, 3, 3, 3, 3, 3, 3, 3, 3, 3, 3, 3, 3, 3, 3, 3, 3, 3, 3, 3, 3, 3, 3, 3, 3, 3, 3, 3, 3, 3, 3, 3, 3, 3, 3, 3, 3, 3, 3, 3, 3, 3, 3, 3, 3, 3, 3, 3, 3, 3, 3, 3, 3, 3, 3, 3, 3, 3, 3, 3, 3, 3, 3, 3, 3, 3, 3, 3, 3, 3, 3, 3, 3, 3, 3, 3, 3, 3, 3, 3, 3, 3, 3, 3, 3, 3, 3, 3, 3, 3, 3, 3, 3, 3, 3, 3, 3, 3, 3, 3, 3, 3, 3, 3, 3, 3, 3, 3, 3, 3, 3, 3, 3, 3, 3, 3, 3, 3, 3, 3, 3, 3, 3, 3, 3]
        int[] faceVertexIndices = [0, 4, 1, 1, 4, 5, 1, 5, 2, 2, 5, 6, 2, 6, 3, 3, 6, 7, 3, 7, 0, 0, 7, 4, 4, 8, 5, 5, 8, 9, 5, 9, 6, 6, 9, 10, 6, 10, 7, 7, 10, 11, 7, 11, 4, 4, 11, 8, 8, 12, 9, 9, 12, 13, 9, 13, 10, 10, 13, 14, 10, 14, 11, 11, 14, 15, 11, 15, 8, 8, 15, 12, 12, 16, 13, 13, 16, 17, 13, 17, 14, 14, 17, 18, 14, 18, 15, 15, 18, 19, 15, 19, 12, 12, 19, 16, 16, 20, 17, 17, 20, 21, 17, 21, 18, 18, 21, 22, 18, 22, 19, 19, 22, 23, 19, 23, 16, 16, 23, 20, 20, 24, 21, 21, 24, 25, 21, 25, 22, 22, 25, 26, 22, 26, 23, 23, 26, 27, 23, 27, 20, 20, 27, 24, 24, 28, 25, 25, 28, 29, 25, 29, 26, 26, 29, 30, 26, 30, 27, 27, 30, 31, 27, 31, 24, 24, 31, 28, 28, 32, 29, 29, 32, 33, 29, 33, 30, 30, 33, 34, 30, 34, 31, 31, 34, 35, 31, 35, 28, 28, 35, 32, 32, 36, 33, 33, 36, 37, 33, 37, 34, 34, 37, 38, 34, 38, 35, 35, 38, 39, 35, 39, 32, 32, 39, 36, 36, 40, 37, 37, 40, 41, 37, 41, 38, 38, 41, 42, 38, 42, 39, 39, 42, 43, 39, 43, 36, 36, 43, 40, 40, 44, 41, 41, 44, 45, 41, 45, 42, 42, 45, 46, 42, 46, 43, 43, 46, 47, 43, 47, 40, 40, 47, 44, 44, 48, 45, 45, 48, 49, 45, 49, 46, 46, 49, 50, 46, 50, 47, 47, 50, 51, 47, 51, 44, 44, 51, 48, 48, 52, 49, 49, 52, 53, 49, 53, 50, 50, 53, 54, 50, 54, 51, 51, 54, 55, 51, 55, 48, 48, 55, 52, 52, 56, 53, 53, 56, 57, 53, 57, 54, 54, 57, 58, 54, 58, 55, 55, 58, 59, 55, 59, 52, 52, 59, 56, 56, 60, 57, 57, 60, 61, 57, 61, 58, 58, 61, 62, 58, 62, 59, 59, 62, 63, 59, 63, 56, 56, 63, 60, 60, 64, 61, 61, 64, 65, 61, 65, 62, 62, 65, 66, 62, 66, 63, 63, 66, 67, 63, 67, 60, 60, 67, 64, 64, 68, 65, 65, 68, 69, 65, 69, 66, 66, 69, 70, 66, 70, 67, 67, 70, 71, 67, 71, 64, 64, 71, 68, 68, 72, 69, 69, 72, 73, 69, 73, 70, 70, 73, 74, 70, 74, 71, 71, 74, 75, 71, 75, 68, 68, 75, 72, 72, 76, 73, 73, 76, 77, 73, 77, 74, 74, 77, 78, 74, 78, 75, 75, 78, 79, 75, 79, 72, 72, 79, 76, 76, 80, 77, 77, 80, 81, 77, 81, 78, 78, 81, 82, 78, 82, 79, 79, 82, 83, 79, 83, 76, 76, 83, 80, 80, 84, 81, 81, 84, 85, 81, 85, 82, 82, 85, 86, 82, 86, 83, 83, 86, 87, 83, 87, 80, 80, 87, 84, 84, 88, 85, 85, 88, 89, 85, 89, 86, 86, 89, 90, 86, 90, 87, 87, 90, 91, 87, 91, 84, 84, 91, 88, 88, 92, 89, 89, 92, 93, 89, 93, 90, 90, 93, 94, 90, 94, 91, 91, 94, 95, 91, 95, 88, 88, 95, 92, 92, 96, 93, 93, 96, 97, 93, 97, 94, 94, 97, 98, 94, 98, 95, 95, 98, 99, 95, 99, 92, 92, 99, 96, 96, 100, 97, 97, 100, 101, 97, 101, 98, 98, 101, 102, 98, 102, 99, 99, 102, 103, 99, 103, 96, 96, 103, 100, 100, 104, 101, 101, 104, 105, 101, 105, 102, 102, 105, 106, 102, 106, 103, 103, 106, 107, 103, 107, 100, 100, 107, 104, 104, 108, 105, 105, 108, 109, 105, 109, 106, 106, 109, 110, 106, 110, 107, 107, 110, 111, 107, 111, 104, 104, 111, 108, 108, 112, 109, 109, 112, 113, 109, 113, 110, 110, 113, 114, 110, 114, 111, 111, 114, 115, 111, 115, 108, 108, 115, 112, 112, 116, 113, 113, 116, 117, 113, 117, 114, 114, 117, 118, 114, 118, 115, 115, 118, 119, 115, 119, 112, 112, 119, 116, 116, 120, 117, 117, 120, 121, 117, 121, 118, 118, 121, 122, 118, 122, 119, 119, 122, 123, 119, 123, 116, 116, 123, 120, 120, 124, 121, 121, 124, 125, 121, 125, 122, 122, 125, 126, 122, 126, 123, 123, 126, 127, 123, 127, 120, 120, 127, 124, 124, 128, 125, 125, 128, 129, 125, 129, 126, 126, 129, 130, 126, 130, 127, 127, 130, 131, 127, 131, 124, 124, 131, 128, 128, 132, 129, 129, 132, 133, 129, 133, 130, 130, 133, 134, 130, 134, 131, 131, 134, 135, 131, 135, 128, 128, 135, 132, 132, 136, 133, 133, 136, 137, 133, 137, 134, 134, 137, 138, 134, 138, 135, 135, 138, 139, 135, 139, 132, 132, 139, 136, 136, 140, 137, 137, 140, 141, 137, 141, 138, 138, 141, 142, 138, 142, 139, 139, 142, 143, 139, 143, 136, 136, 143, 140, 140, 144, 141, 141, 144, 145, 141, 145, 142, 142, 145, 146, 142, 146, 143, 143, 146, 147, 143, 147, 140, 140, 147, 144, 144, 148, 145, 145, 148, 149, 145, 149, 146, 146, 149, 150, 146, 150, 147, 147, 150, 151, 147, 151, 144, 144, 151, 148, 148, 152, 149, 149, 152, 153, 149, 153, 150, 150, 153, 154, 150, 154, 151, 151, 154, 155, 151, 155, 148, 148, 155, 152, 152, 156, 153, 153, 156, 157, 153, 157, 154, 154, 157, 158, 154, 158, 155, 155, 158, 159, 155, 159, 152, 152, 159, 156, 156, 160, 157, 157, 160, 161, 157, 161, 158, 158, 161, 162, 158, 162, 159, 159, 162, 163, 159, 163, 156, 156, 163, 160, 160, 164, 161, 161, 164, 165, 161, 165, 162, 162, 165, 166, 162, 166, 163, 163, 166, 167, 163, 167, 160, 160, 167, 164, 164, 168, 165, 165, 168, 169, 165, 169, 166, 166, 169, 170, 166, 170, 167, 167, 170, 171, 167, 171, 164, 164, 171, 168, 168, 172, 169, 169, 172, 173, 169, 173, 170, 170, 173, 174, 170, 174, 171, 171, 174, 175, 171, 175, 168, 168, 175, 172, 172, 176, 173, 173, 176, 177, 173, 177, 174, 174, 177, 178, 174, 178, 175, 175, 178, 179, 175, 179, 172, 172, 179, 176, 176, 180, 177, 177, 180, 181, 177, 181, 178, 178, 181, 182, 178, 182, 179, 179, 182, 183, 179, 183, 176, 176, 183, 180, 180, 184, 181, 181, 184, 185, 181, 185, 182, 182, 185, 186, 182, 186, 183, 183, 186, 187, 183, 187, 180, 180, 187, 184, 184, 188, 185, 185, 188, 189, 185, 189, 186, 186, 189, 190, 186, 190, 187, 187, 190, 191, 187, 191, 184, 184, 191, 188, 188, 192, 189, 189, 192, 193, 189, 193, 190, 190, 193, 194, 190, 194, 191, 191, 194, 195, 191, 195, 188, 188, 195, 192, 192, 196, 193, 193, 196, 197, 193, 197, 194, 194, 197, 198, 194, 198, 195, 195, 198, 199, 195, 199, 192, 192, 199, 196, 196, 200, 197, 197, 200, 201, 197, 201, 198, 198, 201, 202, 198, 202, 199, 199, 202, 203, 199, 203, 196, 196, 203, 200, 200, 204, 201, 201, 204, 205, 201, 205, 202, 202, 205, 206, 202, 206, 203, 203, 206, 207, 203, 207, 200, 200, 207, 204, 204, 208, 205, 205, 208, 209, 205, 209, 206, 206, 209, 210, 206, 210, 207, 207, 210, 211, 207, 211, 204, 204, 211, 208, 208, 212, 209, 209, 212, 213, 209, 213, 210, 210, 213, 214, 210, 214, 211, 211, 214, 215, 211, 215, 208, 208, 215, 212, 212, 216, 213, 213, 216, 217, 213, 217, 214, 214, 217, 218, 214, 218, 215, 215, 218, 219, 215, 219, 212, 212, 219, 216, 216, 220, 217, 217, 220, 221, 217, 221, 218, 218, 221, 222, 218, 222, 219, 219, 222, 223, 219, 223, 216, 216, 223, 220, 220, 224, 221, 221, 224, 225, 221, 225, 222, 222, 225, 226, 222, 226, 223, 223, 226, 227, 223, 227, 220, 220, 227, 224, 224, 228, 225, 225, 228, 229, 225, 229, 226, 226, 229, 230, 226, 230, 227, 227, 230, 231, 227, 231, 224, 224, 231, 228, 228, 232, 229, 229, 232, 233, 229, 233, 230, 230, 233, 234, 230, 234, 231, 231, 234, 235, 231, 235, 228, 228, 235, 232, 232, 236, 233, 233, 236, 237, 233, 237, 234, 234, 237, 238, 234, 238, 235, 235, 238, 239, 235, 239, 232, 232, 239, 236, 236, 240, 237, 237, 240, 241, 237, 241, 238, 238, 241, 242, 238, 242, 239, 239, 242, 243, 239, 243, 236, 236, 243, 240, 240, 244, 241, 241, 244, 245, 241, 245, 242, 242, 245, 246, 242, 246, 243, 243, 246, 247, 243, 247, 240, 240, 247, 244, 244, 248, 245, 245, 248, 249, 245, 249, 246, 246, 249, 250, 246, 250, 247, 247, 250, 251, 247, 251, 244, 244, 251, 248, 248, 252, 249, 249, 252, 253, 249, 253, 250, 250, 253, 254, 250, 254, 251, 251, 254, 255, 251, 255, 248, 248, 255, 252, 252, 0, 253, 253, 0, 1, 253, 1, 254, 254, 1, 2, 254, 2, 255, 255, 2, 3, 255, 3, 252, 252, 3, 0, 257, 256, 260, 257, 260, 258, 258, 260, 261, 258, 261, 259, 260, 256, 262, 260, 262, 261, 261, 262, 263, 261, 263, 259, 262, 256, 264, 262, 264, 263, 263, 264, 265, 263, 265, 259, 264, 256, 266, 264, 266, 265, 265, 266, 267, 265, 267, 259, 266, 256, 268, 266, 268, 267, 267, 268, 269, 267, 269, 259, 268, 256, 270, 268, 270, 269, 269, 270, 271, 269, 271, 259, 270, 256, 272, 270, 272, 271, 271, 272, 273, 271, 273, 259, 272, 256, 274, 272, 274, 273, 273, 274, 275, 273, 275, 259, 274, 256, 276, 274, 276, 275, 275, 276, 277, 275, 277, 259, 276, 256, 278, 276, 278, 277, 277, 278, 279, 277, 279, 259, 278, 256, 280, 278, 280, 279, 279, 280, 281, 279, 281, 259, 280, 256, 282, 280, 282, 281, 281, 282, 283, 281, 283, 259, 282, 256, 284, 282, 284, 283, 283, 284, 285, 283, 285, 259, 284, 256, 286, 284, 286, 285, 285, 286, 287, 285, 287, 259, 286, 256, 288, 286, 288, 287, 287, 288, 289, 287, 289, 259, 288, 256, 290, 288, 290, 289, 289, 290, 291, 289, 291, 259, 290, 256, 292, 290, 292, 291, 291, 292, 293, 291, 293, 259, 292, 256, 294, 292, 294, 293, 293, 294, 295, 293, 295, 259, 294, 256, 296, 294, 296, 295, 295, 296, 297, 295, 297, 259, 296, 256, 298, 296, 298, 297, 297, 298, 299, 297, 299, 259, 298, 256, 300, 298, 300, 299, 299, 300, 301, 299, 301, 259, 300, 256, 302, 300, 302, 301, 301, 302, 303, 301, 303, 259, 302, 256, 304, 302, 304, 303, 303, 304, 305, 303, 305, 259, 304, 256, 306, 304, 306, 305, 305, 306, 307, 305, 307, 259, 306, 256, 308, 306, 308, 307, 307, 308, 309, 307, 309, 259, 308, 256, 310, 308, 310, 309, 309, 310, 311, 309, 311, 259, 310, 256, 312, 310, 312, 311, 311, 312, 313, 311, 313, 259, 312, 256, 314, 312, 314, 313, 313, 314, 315, 313, 315, 259, 314, 256, 316, 314, 316, 315, 315, 316, 317, 315, 317, 259, 316, 256, 318, 316, 318, 317, 317, 318, 319, 317, 319, 259, 318, 256, 320, 318, 320, 319, 319, 320, 321, 319, 321, 259, 320, 256, 322, 320, 322, 321, 321, 322, 323, 321, 323, 259, 322, 256, 324, 322, 324, 323, 323, 324, 325, 323, 325, 259, 324, 256, 326, 324, 326, 325, 325, 326, 327, 325, 327, 259, 326, 256, 328, 326, 328, 327, 327, 328, 329, 327, 329, 259, 328, 256, 330, 328, 330, 329, 329, 330, 331, 329, 331, 259, 330, 256, 332, 330, 332, 331, 331, 332, 333, 331, 333, 259, 332, 256, 334, 332, 334, 333, 333, 334, 335, 333, 335, 259, 334, 256, 336, 334, 336, 335, 335, 336, 337, 335, 337, 259, 336, 256, 338, 336, 338, 337, 337, 338, 339, 337, 339, 259, 338, 256, 340, 338, 340, 339, 339, 340, 341, 339, 341, 259, 340, 256, 342, 340, 342, 341, 341, 342, 343, 341, 343, 259, 342, 256, 344, 342, 344, 343, 343, 344, 345, 343, 345, 259, 344, 256, 346, 344, 346, 345, 345, 346, 347, 345, 347, 259, 346, 256, 348, 346, 348, 347, 347, 348, 349, 347, 349, 259, 348, 256, 350, 348, 350, 349, 349, 350, 351, 349, 351, 259, 350, 256, 352, 350, 352, 351, 351, 352, 353, 351, 353, 259, 352, 256, 354, 352, 354, 353, 353, 354, 355, 353, 355, 259, 354, 256, 356, 354, 356, 355, 355, 356, 357, 355, 357, 259, 356, 256, 358, 356, 358, 357, 357, 358, 359, 357, 359, 259, 358, 256, 360, 358, 360, 359, 359, 360, 361, 359, 361, 259, 360, 256, 362, 360, 362, 361, 361, 362, 363, 361, 363, 259, 362, 256, 364, 362, 364, 363, 363, 364, 365, 363, 365, 259, 364, 256, 366, 364, 366, 365, 365, 366, 367, 365, 367, 259, 366, 256, 368, 366, 368, 367, 367, 368, 369, 367, 369, 259, 368, 256, 370, 368, 370, 369, 369, 370, 371, 369, 371, 259, 370, 256, 372, 370, 372, 371, 371, 372, 373, 371, 373, 259, 372, 256, 374, 372, 374, 373, 373, 374, 375, 373, 375, 259, 374, 256, 376, 374, 376, 375, 375, 376, 377, 375, 377, 259, 376, 256, 378, 376, 378, 377, 377, 378, 379, 377, 379, 259, 378, 256, 380, 378, 380, 379, 379, 380, 381, 379, 381, 259, 380, 256, 382, 380, 382, 381, 381, 382, 383, 381, 383, 259, 382, 256, 384, 382, 384, 383, 383, 384, 385, 383, 385, 259, 384, 256, 257, 384, 257, 385, 385, 257, 258, 385, 258, 259]
        double3[] extent = [(-0.021000, -0.021000, -0.027000), (0.021000, 0.021000, 0.027000)]
        color3f[] primvars:displayColor = [(0.72, 0.55, 0.38)]
    }

    def Cube "wall_00" (
        apiSchemas = ["PhysicsCollisionAPI", "PhysxCollisionAPI"]
    )
    {
        uniform token purpose = "guide"
        double size = 1
        float physxCollision:contactOffset = 0.008
        float physxCollision:restOffset = 0.0
        float3 xformOp:scale = (0.006000, 0.009317, 0.051000)
        float xformOp:rotateZ = 0.000
        double3 xformOp:translate = (0.018000, 0.000000, 0.001500)
        uniform token[] xformOpOrder = ["xformOp:translate", "xformOp:rotateZ", "xformOp:scale"]
    }
    def Cube "wall_01" (
        apiSchemas = ["PhysicsCollisionAPI", "PhysxCollisionAPI"]
    )
    {
        uniform token purpose = "guide"
        double size = 1
        float physxCollision:contactOffset = 0.008
        float physxCollision:restOffset = 0.0
        float3 xformOp:scale = (0.006000, 0.009317, 0.051000)
        float xformOp:rotateZ = 30.000
        double3 xformOp:translate = (0.015588, 0.009000, 0.001500)
        uniform token[] xformOpOrder = ["xformOp:translate", "xformOp:rotateZ", "xformOp:scale"]
    }
    def Cube "wall_02" (
        apiSchemas = ["PhysicsCollisionAPI", "PhysxCollisionAPI"]
    )
    {
        uniform token purpose = "guide"
        double size = 1
        float physxCollision:contactOffset = 0.008
        float physxCollision:restOffset = 0.0
        float3 xformOp:scale = (0.006000, 0.009317, 0.051000)
        float xformOp:rotateZ = 60.000
        double3 xformOp:translate = (0.009000, 0.015588, 0.001500)
        uniform token[] xformOpOrder = ["xformOp:translate", "xformOp:rotateZ", "xformOp:scale"]
    }
    def Cube "wall_03" (
        apiSchemas = ["PhysicsCollisionAPI", "PhysxCollisionAPI"]
    )
    {
        uniform token purpose = "guide"
        double size = 1
        float physxCollision:contactOffset = 0.008
        float physxCollision:restOffset = 0.0
        float3 xformOp:scale = (0.006000, 0.009317, 0.051000)
        float xformOp:rotateZ = 90.000
        double3 xformOp:translate = (0.000000, 0.018000, 0.001500)
        uniform token[] xformOpOrder = ["xformOp:translate", "xformOp:rotateZ", "xformOp:scale"]
    }
    def Cube "wall_04" (
        apiSchemas = ["PhysicsCollisionAPI", "PhysxCollisionAPI"]
    )
    {
        uniform token purpose = "guide"
        double size = 1
        float physxCollision:contactOffset = 0.008
        float physxCollision:restOffset = 0.0
        float3 xformOp:scale = (0.006000, 0.009317, 0.051000)
        float xformOp:rotateZ = 120.000
        double3 xformOp:translate = (-0.009000, 0.015588, 0.001500)
        uniform token[] xformOpOrder = ["xformOp:translate", "xformOp:rotateZ", "xformOp:scale"]
    }
    def Cube "wall_05" (
        apiSchemas = ["PhysicsCollisionAPI", "PhysxCollisionAPI"]
    )
    {
        uniform token purpose = "guide"
        double size = 1
        float physxCollision:contactOffset = 0.008
        float physxCollision:restOffset = 0.0
        float3 xformOp:scale = (0.006000, 0.009317, 0.051000)
        float xformOp:rotateZ = 150.000
        double3 xformOp:translate = (-0.015588, 0.009000, 0.001500)
        uniform token[] xformOpOrder = ["xformOp:translate", "xformOp:rotateZ", "xformOp:scale"]
    }
    def Cube "wall_06" (
        apiSchemas = ["PhysicsCollisionAPI", "PhysxCollisionAPI"]
    )
    {
        uniform token purpose = "guide"
        double size = 1
        float physxCollision:contactOffset = 0.008
        float physxCollision:restOffset = 0.0
        float3 xformOp:scale = (0.006000, 0.009317, 0.051000)
        float xformOp:rotateZ = 180.000
        double3 xformOp:translate = (-0.018000, 0.000000, 0.001500)
        uniform token[] xformOpOrder = ["xformOp:translate", "xformOp:rotateZ", "xformOp:scale"]
    }
    def Cube "wall_07" (
        apiSchemas = ["PhysicsCollisionAPI", "PhysxCollisionAPI"]
    )
    {
        uniform token purpose = "guide"
        double size = 1
        float physxCollision:contactOffset = 0.008
        float physxCollision:restOffset = 0.0
        float3 xformOp:scale = (0.006000, 0.009317, 0.051000)
        float xformOp:rotateZ = 210.000
        double3 xformOp:translate = (-0.015588, -0.009000, 0.001500)
        uniform token[] xformOpOrder = ["xformOp:translate", "xformOp:rotateZ", "xformOp:scale"]
    }
    def Cube "wall_08" (
        apiSchemas = ["PhysicsCollisionAPI", "PhysxCollisionAPI"]
    )
    {
        uniform token purpose = "guide"
        double size = 1
        float physxCollision:contactOffset = 0.008
        float physxCollision:restOffset = 0.0
        float3 xformOp:scale = (0.006000, 0.009317, 0.051000)
        float xformOp:rotateZ = 240.000
        double3 xformOp:translate = (-0.009000, -0.015588, 0.001500)
        uniform token[] xformOpOrder = ["xformOp:translate", "xformOp:rotateZ", "xformOp:scale"]
    }
    def Cube "wall_09" (
        apiSchemas = ["PhysicsCollisionAPI", "PhysxCollisionAPI"]
    )
    {
        uniform token purpose = "guide"
        double size = 1
        float physxCollision:contactOffset = 0.008
        float physxCollision:restOffset = 0.0
        float3 xformOp:scale = (0.006000, 0.009317, 0.051000)
        float xformOp:rotateZ = 270.000
        double3 xformOp:translate = (-0.000000, -0.018000, 0.001500)
        uniform token[] xformOpOrder = ["xformOp:translate", "xformOp:rotateZ", "xformOp:scale"]
    }
    def Cube "wall_10" (
        apiSchemas = ["PhysicsCollisionAPI", "PhysxCollisionAPI"]
    )
    {
        uniform token purpose = "guide"
        double size = 1
        float physxCollision:contactOffset = 0.008
        float physxCollision:restOffset = 0.0
        float3 xformOp:scale = (0.006000, 0.009317, 0.051000)
        float xformOp:rotateZ = 300.000
        double3 xformOp:translate = (0.009000, -0.015588, 0.001500)
        uniform token[] xformOpOrder = ["xformOp:translate", "xformOp:rotateZ", "xformOp:scale"]
    }
    def Cube "wall_11" (
        apiSchemas = ["PhysicsCollisionAPI", "PhysxCollisionAPI"]
    )
    {
        uniform token purpose = "guide"
        double size = 1
        float physxCollision:contactOffset = 0.008
        float physxCollision:restOffset = 0.0
        float3 xformOp:scale = (0.006000, 0.009317, 0.051000)
        float xformOp:rotateZ = 330.000
        double3 xformOp:translate = (0.015588, -0.009000, 0.001500)
        uniform token[] xformOpOrder = ["xformOp:translate", "xformOp:rotateZ", "xformOp:scale"]
    }

    def Cylinder "bottom" (
        apiSchemas = ["PhysicsCollisionAPI", "PhysxCollisionAPI"]
    )
    {
        uniform token purpose = "guide"
        double radius = 0.021
        double height = 0.003
        float physxCollision:contactOffset = 0.008
        float physxCollision:restOffset = 0.0
        double3 xformOp:translate = (0, 0, -0.025500)
        uniform token[] xformOpOrder = ["xformOp:translate"]
    }
}
